<svg id="visual" viewBox="0 0 600 900" width="600" height="900" xmlns="http://www.w3.org/2000/svg" xmlns:xlink="http://www.w3.org/1999/xlink" version="1.1"><rect x="0" y="0" width="600" height="900" fill="#23253b"></rect><path d="M0 210L20 196C40 182 80 154 120 142.5C160 131 200 136 240 144.8C280 153.7 320 166.3 360 176.2C400 186 440 193 480 192.3C520 191.7 560 183.3 580 179.2L600 175L600 0L580 0C560 0 520 0 480 0C440 0 400 0 360 0C320 0 280 0 240 0C200 0 160 0 120 0C80 0 40 0 20 0L0 0Z" fill="#4bb5f5" stroke-linecap="round" stroke-linejoin="miter"></path></svg>