<svg id="visual" viewBox="0 0 960 540" width="960" height="540" xmlns="http://www.w3.org/2000/svg" xmlns:xlink="http://www.w3.org/1999/xlink" version="1.1"><rect x="0" y="0" width="960" height="540" fill="#23253b"></rect><defs><linearGradient id="grad1_0" x1="43.8%" y1="0%" x2="100%" y2="100%"><stop offset="14.444444444444446%" stop-color="#4bb5f5" stop-opacity="1"></stop><stop offset="85.55555555555554%" stop-color="#4bb5f5" stop-opacity="1"></stop></linearGradient></defs><defs><linearGradient id="grad1_1" x1="43.8%" y1="0%" x2="100%" y2="100%"><stop offset="14.444444444444446%" stop-color="#4bb5f5" stop-opacity="1"></stop><stop offset="85.55555555555554%" stop-color="#466794" stop-opacity="1"></stop></linearGradient></defs><defs><linearGradient id="grad1_2" x1="43.8%" y1="0%" x2="100%" y2="100%"><stop offset="14.444444444444446%" stop-color="#23253b" stop-opacity="1"></stop><stop offset="85.55555555555554%" stop-color="#466794" stop-opacity="1"></stop></linearGradient></defs><defs><linearGradient id="grad2_0" x1="0%" y1="0%" x2="56.3%" y2="100%"><stop offset="14.444444444444446%" stop-color="#4bb5f5" stop-opacity="1"></stop><stop offset="85.55555555555554%" stop-color="#4bb5f5" stop-opacity="1"></stop></linearGradient></defs><defs><linearGradient id="grad2_1" x1="0%" y1="0%" x2="56.3%" y2="100%"><stop offset="14.444444444444446%" stop-color="#466794" stop-opacity="1"></stop><stop offset="85.55555555555554%" stop-color="#4bb5f5" stop-opacity="1"></stop></linearGradient></defs><defs><linearGradient id="grad2_2" x1="0%" y1="0%" x2="56.3%" y2="100%"><stop offset="14.444444444444446%" stop-color="#466794" stop-opacity="1"></stop><stop offset="85.55555555555554%" stop-color="#23253b" stop-opacity="1"></stop></linearGradient></defs><g transform="translate(960, 0)"><path d="M0 108C-14.9 106.2 -29.7 104.4 -40.2 97C-50.7 89.6 -56.8 76.6 -67.2 67.2C-77.6 57.8 -92.3 51.9 -99.8 41.3C-107.3 30.7 -107.6 15.4 -108 0L0 0Z" fill="#374466"></path><path d="M0 72C-9.9 70.8 -19.8 69.6 -26.8 64.7C-33.8 59.7 -37.9 51.1 -44.8 44.8C-51.7 38.5 -61.5 34.6 -66.5 27.6C-71.5 20.5 -71.8 10.2 -72 0L0 0Z" fill="#4d8cc4"></path><path d="M0 36C-5 35.4 -9.9 34.8 -13.4 32.3C-16.9 29.9 -18.9 25.5 -22.4 22.4C-25.9 19.3 -30.8 17.3 -33.3 13.8C-35.8 10.2 -35.9 5.1 -36 0L0 0Z" fill="#4bb5f5"></path></g><g transform="translate(0, 540)"><path d="M0 -108C14.1 -106.6 28.2 -105.3 41.3 -99.8C54.5 -94.3 66.6 -84.6 72.8 -72.8C79 -61.1 79.2 -47.3 84.1 -34.8C88.9 -22.3 98.5 -11.2 108 0L0 0Z" fill="#374466"></path><path d="M0 -72C9.4 -71.1 18.8 -70.2 27.6 -66.5C36.3 -62.8 44.4 -56.4 48.6 -48.6C52.7 -40.7 52.8 -31.5 56 -23.2C59.3 -14.9 65.6 -7.4 72 0L0 0Z" fill="#4d8cc4"></path><path d="M0 -36C4.7 -35.5 9.4 -35.1 13.8 -33.3C18.2 -31.4 22.2 -28.2 24.3 -24.3C26.3 -20.4 26.4 -15.8 28 -11.6C29.6 -7.4 32.8 -3.7 36 0L0 0Z" fill="#4bb5f5"></path></g></svg>